Black Narrow — UC.ufo
<glyph name="A" format="1">
  <advance width="1140"/>
  <unicode hex="0041"/>
  <outline>
    <contour>
      <point x="-134" y="101" type="line"/>
      <point x="-143" y="0" type="line"/>
      <point x="340" y="0" type="line"/>
      <point x="350" y="101" type="line"/>
      <point x="191" y="129" type="line"/>
      <point x="557" y="1130" type="line"/>
      <point x="675" y="1410" type="line"/>
      <point x="620" y="1420" type="line"/>
      <point x="624" y="1105" type="line"/>
      <point x="713" y="129" type="line"/>
      <point x="582" y="101" type="line"/>
      <point x="577" y="0" type="line"/>
      <point x="1181" y="0" type="line"/>
      <point x="1189" y="101" type="line"/>
      <point x="1056" y="131" type="line"/>
      <point x="877" y="1491" type="line"/>
      <point x="562" y="1491" type="line"/>
      <point x="-16" y="129" type="line"/>
    </contour>
    <contour>
      <point x="253" y="553" type="line"/>
      <point x="194" y="410" type="line"/>
      <point x="783" y="410" type="line"/>
      <point x="770" y="553" type="line"/>
    </contour>
    <contour>
      <point x="471" y="0" type="move" name="bottom"/>
    </contour>
    <contour>
      <point x="961" y="20" type="move" name="ogonek"/>
    </contour>
    <contour>
      <point x="712" y="1486" type="move" name="top"/>
    </contour>
  </outline>
</glyph>
<glyph name="B" format="1">
  <advance width="1215"/>
  <unicode hex="0042"/>
  <outline>
    <contour>
      <point x="534" y="-20" type="curve"/>
      <point x="953" y="-20"/>
      <point x="1162" y="122"/>
      <point x="1171" y="487" type="curve"/>
      <point x="1174" y="646"/>
      <point x="1062" y="788"/>
      <point x="861" y="784" type="curve"/>
      <point x="1085" y="844"/>
      <point x="1196" y="969"/>
      <point x="1193" y="1183" type="curve"/>
      <point x="1191" y="1343"/>
      <point x="1133" y="1502"/>
      <point x="793" y="1502" type="curve"/>
      <point x="678" y="1502"/>
      <point x="581" y="1488"/>
      <point x="480" y="1486" type="curve"/>
      <point x="182" y="1486" type="line"/>
      <point x="169" y="1381" type="line"/>
      <point x="293" y="1357" type="line"/>
      <point x="124" y="129" type="line"/>
      <point x="7" y="101" type="line"/>
      <point x="-2" y="0" type="line"/>
      <point x="258" y="0" type="line" smooth="yes"/>
      <point x="337" y="0"/>
      <point x="450" y="-20"/>
    </contour>
    <contour>
      <point x="385" y="147" type="curve"/>
      <point x="419" y="48" type="line"/>
      <point x="510" y="719" type="line"/>
      <point x="443" y="696" type="line"/>
      <point x="529" y="702"/>
      <point x="543" y="704"/>
      <point x="595" y="704" type="curve"/>
      <point x="770" y="704"/>
      <point x="833" y="623"/>
      <point x="835" y="456" type="curve"/>
      <point x="839" y="209"/>
      <point x="754" y="100"/>
      <point x="575" y="100" type="curve"/>
      <point x="517" y="100"/>
      <point x="386" y="122"/>
    </contour>
    <contour>
      <point x="513" y="836" type="curve"/>
      <point x="526" y="819" type="line"/>
      <point x="613" y="1449" type="line"/>
      <point x="562" y="1340" type="line"/>
      <point x="542" y="1376"/>
      <point x="674" y="1381"/>
      <point x="717" y="1381" type="curve"/>
      <point x="828" y="1381"/>
      <point x="889" y="1303"/>
      <point x="892" y="1157" type="curve"/>
      <point x="894" y="925"/>
      <point x="762" y="835"/>
      <point x="620" y="835" type="curve"/>
      <point x="546" y="835"/>
      <point x="564" y="834"/>
    </contour>
    <contour>
      <point x="536" y="0" type="move" name="bottom"/>
    </contour>
    <contour>
      <point x="745" y="1486" type="move" name="top"/>
    </contour>
  </outline>
</glyph>
<glyph name="C" format="1">
  <advance width="1121"/>
  <unicode hex="0043"/>
  <outline>
    <contour>
      <point x="589" y="-16" type="curve"/>
      <point x="852" y="-16"/>
      <point x="964" y="69"/>
      <point x="1029" y="126" type="curve"/>
      <point x="1072" y="408" type="line"/>
      <point x="890" y="408" type="line"/>
      <point x="871" y="333"/>
      <point x="848" y="253"/>
      <point x="815" y="211" type="curve"/>
      <point x="747" y="139"/>
      <point x="669" y="136"/>
      <point x="641" y="136" type="curve"/>
      <point x="491" y="136"/>
      <point x="430" y="317"/>
      <point x="427" y="641" type="curve" smooth="yes"/>
      <point x="428" y="968"/>
      <point x="543" y="1381"/>
      <point x="804" y="1381" type="curve"/>
      <point x="820" y="1381"/>
      <point x="842" y="1373"/>
      <point x="863" y="1362" type="curve"/>
      <point x="894" y="1061" type="line"/>
      <point x="1129" y="1061" type="line"/>
      <point x="1189" y="1449" type="line"/>
      <point x="1126" y="1457"/>
      <point x="995" y="1504"/>
      <point x="858" y="1504" type="curve"/>
      <point x="388" y="1504"/>
      <point x="83" y="1177"/>
      <point x="69" y="621" type="curve" smooth="yes"/>
      <point x="61" y="283"/>
      <point x="197" y="-16"/>
    </contour>
    <contour>
      <point x="588" y="0" type="move" name="bottom"/>
    </contour>
    <contour>
      <point x="857" y="1486" type="move" name="top"/>
    </contour>
  </outline>
</glyph>
<glyph name="D" format="1">
  <advance width="1307"/>
  <unicode hex="0044"/>
  <outline>
    <contour>
      <point x="511" y="-16" type="curve"/>
      <point x="1076" y="-16"/>
      <point x="1305" y="363"/>
      <point x="1317" y="900" type="curve"/>
      <point x="1324" y="1243"/>
      <point x="1186" y="1504"/>
      <point x="769" y="1502" type="curve"/>
      <point x="664" y="1502"/>
      <point x="554" y="1488"/>
      <point x="458" y="1486" type="curve"/>
      <point x="182" y="1486" type="line"/>
      <point x="171" y="1380" type="line"/>
      <point x="292" y="1358" type="line"/>
      <point x="121" y="128" type="line"/>
      <point x="-12" y="100" type="line"/>
      <point x="-25" y="0" type="line"/>
      <point x="304" y="0" type="line"/>
      <point x="372" y="0"/>
      <point x="480" y="-16"/>
    </contour>
    <contour>
      <point x="414" y="150" type="curve"/>
      <point x="427" y="61" type="line"/>
      <point x="619" y="1401" type="line"/>
      <point x="606" y="1346" type="line"/>
      <point x="625" y="1362"/>
      <point x="649" y="1380"/>
      <point x="739" y="1380" type="curve"/>
      <point x="903" y="1380"/>
      <point x="979" y="1237"/>
      <point x="970" y="867" type="curve"/>
      <point x="963" y="530"/>
      <point x="848" y="106"/>
      <point x="542" y="106" type="curve"/>
      <point x="487" y="106"/>
      <point x="387" y="138"/>
    </contour>
    <contour>
      <point x="525" y="0" type="move" name="bottom"/>
    </contour>
    <contour>
      <point x="768" y="1486" type="move" name="top"/>
    </contour>
  </outline>
</glyph>
<glyph name="E" format="1">
  <advance width="1168"/>
  <unicode hex="0045"/>
  <outline>
    <contour>
      <point x="-9" y="101" type="line"/>
      <point x="-25" y="0" type="line"/>
      <point x="1051" y="0" type="line"/>
      <point x="1120" y="432" type="line"/>
      <point x="960" y="447" type="line"/>
      <point x="826" y="176" type="line"/>
      <point x="449" y="143" type="line"/>
      <point x="523" y="709" type="line"/>
      <point x="891" y="680" type="line"/>
      <point x="932" y="897" type="line"/>
      <point x="546" y="857" type="line"/>
      <point x="614" y="1373" type="line"/>
      <point x="886" y="1348" type="line"/>
      <point x="953" y="1131" type="line"/>
      <point x="1109" y="1131" type="line"/>
      <point x="1149" y="1486" type="line"/>
      <point x="182" y="1486" type="line"/>
      <point x="169" y="1381" type="line"/>
      <point x="293" y="1357" type="line"/>
      <point x="121" y="128" type="line"/>
    </contour>
    <contour>
      <point x="527" y="0" type="move" name="bottom"/>
    </contour>
    <contour>
      <point x="947" y="20" type="move" name="ogonek"/>
    </contour>
    <contour>
      <point x="706" y="1486" type="move" name="top"/>
    </contour>
    <contour>
      <point x="161" y="1486" type="move" name="topleft"/>
    </contour>
  </outline>
</glyph>
<glyph name="F" format="1">
  <advance width="1088"/>
  <unicode hex="0046"/>
  <outline>
    <contour>
      <point x="6" y="100" type="line"/>
      <point x="-8" y="0" type="line"/>
      <point x="672" y="0" type="line"/>
      <point x="681" y="100" type="line"/>
      <point x="444" y="128" type="line"/>
      <point x="519" y="687" type="line"/>
      <point x="910" y="651" type="line"/>
      <point x="945" y="863" type="line"/>
      <point x="541" y="836" type="line"/>
      <point x="614" y="1371" type="line"/>
      <point x="892" y="1347" type="line"/>
      <point x="912" y="1118" type="line"/>
      <point x="1115" y="1118" type="line"/>
      <point x="1159" y="1486" type="line"/>
      <point x="181" y="1486" type="line"/>
      <point x="166" y="1381" type="line"/>
      <point x="290" y="1357" type="line"/>
      <point x="120" y="128" type="line"/>
    </contour>
    <contour>
      <point x="573" y="-164" type="move" name="btm"/>
    </contour>
    <contour>
      <point x="699" y="1486" type="move" name="top"/>
    </contour>
  </outline>
</glyph>
<glyph name="H" format="1">
  <advance width="1411"/>
  <unicode hex="0048"/>
  <outline>
    <contour>
      <point x="4" y="100" type="line"/>
      <point x="-8" y="0" type="line"/>
      <point x="583" y="0" type="line"/>
      <point x="592" y="100" type="line"/>
      <point x="442" y="128" type="line"/>
      <point x="612" y="1357" type="line"/>
      <point x="770" y="1381" type="line"/>
      <point x="783" y="1486" type="line"/>
      <point x="180" y="1486" type="line"/>
      <point x="165" y="1381" type="line"/>
      <point x="290" y="1357" type="line"/>
      <point x="120" y="128" type="line"/>
    </contour>
    <contour>
      <point x="472" y="823" type="line"/>
      <point x="469" y="689" type="line"/>
      <point x="1023" y="689" type="line"/>
      <point x="1026" y="823" type="line"/>
    </contour>
    <contour>
      <point x="743" y="100" type="line"/>
      <point x="727" y="0" type="line"/>
      <point x="1309" y="0" type="line"/>
      <point x="1323" y="100" type="line"/>
      <point x="1191" y="128" type="line"/>
      <point x="1360" y="1358" type="line"/>
      <point x="1491" y="1380" type="line"/>
      <point x="1504" y="1486" type="line"/>
      <point x="918" y="1486" type="line"/>
      <point x="905" y="1380" type="line"/>
      <point x="1036" y="1358" type="line"/>
      <point x="866" y="128" type="line"/>
    </contour>
    <contour>
      <point x="655" y="0" type="move" name="bottom"/>
    </contour>
    <contour>
      <point x="851" y="1486" type="move" name="top"/>
    </contour>
  </outline>
</glyph>
<glyph name="I" format="1">
  <advance width="699"/>
  <unicode hex="0049"/>
  <outline>
    <contour>
      <point x="6" y="101" type="line"/>
      <point x="-9" y="0" type="line"/>
      <point x="597" y="0" type="line"/>
      <point x="604" y="101" type="line"/>
      <point x="455" y="129" type="line"/>
      <point x="620" y="1357" type="line"/>
      <point x="769" y="1381" type="line"/>
      <point x="782" y="1486" type="line"/>
      <point x="186" y="1486" type="line"/>
      <point x="175" y="1381" type="line"/>
      <point x="298" y="1357" type="line"/>
      <point x="133" y="129" type="line"/>
    </contour>
    <contour>
      <point x="277" y="0" type="move" name="bottom"/>
    </contour>
    <contour>
      <point x="437" y="-164" type="move" name="btm"/>
    </contour>
    <contour>
      <point x="489" y="20" type="move" name="ogonek"/>
    </contour>
    <contour>
      <point x="482" y="1486" type="move" name="top"/>
    </contour>
    <contour>
      <point x="192" y="1486" type="move" name="topleft"/>
    </contour>
  </outline>
</glyph>
<glyph name="J" format="1">
  <advance width="624"/>
  <unicode hex="004A"/>
  <outline>
    <contour>
      <point x="-158" y="-235" type="curve"/>
      <point x="-112" y="-336" type="line"/>
      <point x="153" y="-298"/>
      <point x="339" y="-141"/>
      <point x="413" y="74" type="curve"/>
      <point x="445" y="166"/>
      <point x="525" y="800"/>
      <point x="595" y="1357" type="curve"/>
      <point x="710" y="1381" type="line"/>
      <point x="727" y="1486" type="line"/>
      <point x="170" y="1486" type="line"/>
      <point x="155" y="1381" type="line"/>
      <point x="277" y="1355" type="line"/>
      <point x="224" y="931"/>
      <point x="160" y="458"/>
      <point x="103" y="84" type="curve"/>
      <point x="85" y="-47"/>
      <point x="6" y="-171"/>
    </contour>
    <contour>
      <point x="231" y="-164" type="move" name="btm"/>
    </contour>
    <contour>
      <point x="470" y="1486" type="move" name="top"/>
    </contour>
  </outline>
</glyph>
<glyph name="K" format="1">
  <advance width="1298"/>
  <unicode hex="004B"/>
  <outline>
    <contour>
      <point x="490" y="668" type="line"/>
      <point x="461" y="456" type="line"/>
      <point x="1269" y="1357" type="line"/>
      <point x="1377" y="1381" type="line"/>
      <point x="1390" y="1486" type="line"/>
      <point x="955" y="1486" type="line"/>
      <point x="944" y="1383" type="line"/>
      <point x="1058" y="1357" type="line"/>
    </contour>
    <contour>
      <point x="5" y="101" type="line"/>
      <point x="-10" y="0" type="line"/>
      <point x="587" y="0" type="line"/>
      <point x="598" y="101" type="line"/>
      <point x="443" y="129" type="line"/>
      <point x="606" y="1357" type="line"/>
      <point x="763" y="1381" type="line"/>
      <point x="776" y="1486" type="line"/>
      <point x="182" y="1486" type="line"/>
      <point x="169" y="1381" type="line"/>
      <point x="290" y="1357" type="line"/>
      <point x="127" y="129" type="line"/>
    </contour>
    <contour>
      <point x="911" y="0" type="curve"/>
      <point x="1306" y="0" type="line"/>
      <point x="1318" y="101" type="line"/>
      <point x="1221" y="130" type="line"/>
      <point x="1181" y="155"/>
      <point x="1133" y="265"/>
      <point x="1061" y="449" type="curve"/>
      <point x="1020" y="554"/>
      <point x="925" y="801"/>
      <point x="876" y="901" type="curve"/>
      <point x="652" y="680" type="line"/>
      <point x="716" y="534"/>
      <point x="767" y="340"/>
      <point x="807" y="213" type="curve"/>
      <point x="855" y="59"/>
      <point x="859" y="6"/>
    </contour>
    <contour>
      <point x="699" y="0" type="move" name="bottom"/>
    </contour>
    <contour>
      <point x="835" y="1486" type="move" name="top"/>
    </contour>
  </outline>
</glyph>
<glyph name="L" format="1">
  <advance width="1100"/>
  <unicode hex="004C"/>
  <outline>
    <contour>
      <point x="13" y="101" type="line"/>
      <point x="-1" y="0" type="line"/>
      <point x="990" y="0" type="line"/>
      <point x="1090" y="552" type="line"/>
      <point x="928" y="573" type="line"/>
      <point x="730" y="142" type="line"/>
      <point x="447" y="123" type="line"/>
      <point x="612" y="1357" type="line"/>
      <point x="768" y="1381" type="line"/>
      <point x="781" y="1486" type="line"/>
      <point x="182" y="1486" type="line"/>
      <point x="167" y="1381" type="line"/>
      <point x="290" y="1357" type="line"/>
      <point x="127" y="129" type="line"/>
    </contour>
    <contour>
      <point x="511" y="0" type="move" name="bottom"/>
    </contour>
    <contour>
      <point x="762" y="1110" type="move" name="car"/>
    </contour>
    <contour>
      <point x="486" y="1486" type="move" name="top"/>
    </contour>
  </outline>
</glyph>
<glyph name="M" format="1">
  <advance width="1757"/>
  <unicode hex="004D"/>
  <outline>
    <contour>
      <point x="-68" y="101" type="line"/>
      <point x="-81" y="0" type="line"/>
      <point x="451" y="0" type="line"/>
      <point x="463" y="101" type="line"/>
      <point x="270" y="129" type="line"/>
      <point x="464" y="981" type="line"/>
      <point x="546" y="1358" type="line"/>
      <point x="582" y="991" type="line"/>
      <point x="669" y="0" type="line"/>
      <point x="822" y="-2" type="line"/>
      <point x="1210" y="1015" type="line"/>
      <point x="1336" y="1359" type="line"/>
      <point x="1312" y="967" type="line"/>
      <point x="1241" y="129" type="line"/>
      <point x="1081" y="103" type="line"/>
      <point x="1072" y="0" type="line"/>
      <point x="1699" y="0" type="line"/>
      <point x="1708" y="101" type="line"/>
      <point x="1555" y="129" type="line"/>
      <point x="1617" y="1357" type="line"/>
      <point x="1765" y="1381" type="line"/>
      <point x="1781" y="1486" type="line"/>
      <point x="1230" y="1486" type="line"/>
      <point x="953" y="646" type="line"/>
      <point x="908" y="474" type="line"/>
      <point x="896" y="646" type="line"/>
      <point x="840" y="1486" type="line"/>
      <point x="222" y="1486" type="line"/>
      <point x="205" y="1381" type="line"/>
      <point x="370" y="1357" type="line"/>
      <point x="68" y="129" type="line"/>
    </contour>
    <contour>
      <point x="753" y="0" type="move" name="bottom"/>
    </contour>
    <contour>
      <point x="1015" y="1486" type="move" name="top"/>
    </contour>
  </outline>
</glyph>
<glyph name="N" format="1">
  <advance width="1356"/>
  <unicode hex="004E"/>
  <outline>
    <contour>
      <point x="1" y="100" type="line"/>
      <point x="-8" y="0" type="line"/>
      <point x="452" y="0" type="line"/>
      <point x="463" y="100" type="line"/>
      <point x="312" y="128" type="line"/>
      <point x="458" y="1384" type="line"/>
      <point x="410" y="1380" type="line"/>
      <point x="505" y="969" type="line"/>
      <point x="783" y="0" type="line"/>
      <point x="1126" y="0" type="line"/>
      <point x="1323" y="1358" type="line"/>
      <point x="1448" y="1380" type="line"/>
      <point x="1460" y="1486" type="line"/>
      <point x="1028" y="1486" type="line"/>
      <point x="1017" y="1380" type="line"/>
      <point x="1143" y="1358" type="line"/>
      <point x="977" y="133" type="line"/>
      <point x="1030" y="138" type="line"/>
      <point x="941" y="509" type="line"/>
      <point x="681" y="1486" type="line"/>
      <point x="183" y="1486" type="line"/>
      <point x="167" y="1380" type="line"/>
      <point x="293" y="1358" type="line"/>
      <point x="126" y="128" type="line"/>
    </contour>
    <contour>
      <point x="631" y="0" type="move" name="bottom"/>
    </contour>
    <contour>
      <point x="849" y="1486" type="move" name="top"/>
    </contour>
  </outline>
</glyph>
<glyph name="O" format="1">
  <advance width="1239"/>
  <unicode hex="004F"/>
  <outline>
    <contour>
      <point x="550" y="-20" type="curve"/>
      <point x="1048" y="-20"/>
      <point x="1239" y="425"/>
      <point x="1251" y="873" type="curve"/>
      <point x="1259" y="1209"/>
      <point x="1133" y="1506"/>
      <point x="765" y="1506" type="curve"/>
      <point x="290" y="1506"/>
      <point x="78" y="1079"/>
      <point x="67" y="621" type="curve"/>
      <point x="58" y="258"/>
      <point x="189" y="-20"/>
    </contour>
    <contour>
      <point x="578" y="98" type="curve"/>
      <point x="419" y="98"/>
      <point x="409" y="375"/>
      <point x="415" y="633" type="curve"/>
      <point x="425" y="1018"/>
      <point x="535" y="1385"/>
      <point x="737" y="1385" type="curve"/>
      <point x="869" y="1385"/>
      <point x="909" y="1188"/>
      <point x="901" y="860" type="curve"/>
      <point x="891" y="436"/>
      <point x="795" y="98"/>
    </contour>
    <contour>
      <point x="560" y="0" type="move" name="bottom"/>
    </contour>
    <contour>
      <point x="664" y="744" type="move" name="center"/>
    </contour>
    <contour>
      <point x="753" y="20" type="move" name="ogonek"/>
    </contour>
    <contour>
      <point x="764" y="1486" type="move" name="top"/>
    </contour>
    <contour>
      <point x="184" y="1486" type="move" name="topleft"/>
    </contour>
    <contour>
      <point x="1139" y="1486" type="move" name="topright"/>
    </contour>
  </outline>
</glyph>
<glyph name="P" format="1">
  <advance width="1147"/>
  <unicode hex="0050"/>
  <outline>
    <contour>
      <point x="-12" y="100" type="line"/>
      <point x="-24" y="0" type="line"/>
      <point x="649" y="0" type="line"/>
      <point x="656" y="100" type="line"/>
      <point x="444" y="128" type="line"/>
      <point x="623" y="1452" type="line"/>
      <point x="498" y="1340" type="line"/>
      <point x="576" y="1372"/>
      <point x="628" y="1380"/>
      <point x="670" y="1380" type="curve"/>
      <point x="794" y="1380"/>
      <point x="891" y="1299"/>
      <point x="887" y="1099" type="curve"/>
      <point x="880" y="818"/>
      <point x="768" y="630"/>
      <point x="599" y="630" type="curve"/>
      <point x="516" y="630"/>
      <point x="464" y="645"/>
      <point x="437" y="654" type="curve"/>
      <point x="442" y="514" type="line"/>
      <point x="462" y="511"/>
      <point x="543" y="505"/>
      <point x="587" y="505" type="curve"/>
      <point x="977" y="505"/>
      <point x="1219" y="722"/>
      <point x="1216" y="1106" type="curve"/>
      <point x="1214" y="1364"/>
      <point x="1096" y="1502"/>
      <point x="740" y="1502" type="curve"/>
      <point x="654" y="1502"/>
      <point x="563" y="1486"/>
      <point x="460" y="1486" type="curve"/>
      <point x="182" y="1486" type="line"/>
      <point x="167" y="1381" type="line"/>
      <point x="292" y="1357" type="line"/>
      <point x="120" y="128" type="line"/>
    </contour>
    <contour>
      <point x="736" y="1486" type="move" name="top"/>
    </contour>
  </outline>
</glyph>
<glyph name="Q" format="1">
  <advance width="1240"/>
  <unicode hex="0051"/>
  <outline>
    <contour>
      <point x="863" y="-422" type="curve"/>
      <point x="1046" y="-422"/>
      <point x="1162" y="-355"/>
      <point x="1208" y="-315" type="curve"/>
      <point x="1210" y="-140" type="line"/>
      <point x="1134" y="-168"/>
      <point x="1007" y="-179"/>
      <point x="958" y="-179" type="curve"/>
      <point x="818" y="-179"/>
      <point x="711" y="-164"/>
      <point x="717" y="-5" type="curve"/>
      <point x="571" y="-20" type="line"/>
      <point x="509" y="-277"/>
      <point x="599" y="-422"/>
    </contour>
    <contour>
      <point x="552" y="-20" type="curve"/>
      <point x="1050" y="-20"/>
      <point x="1242" y="425"/>
      <point x="1253" y="873" type="curve"/>
      <point x="1261" y="1209"/>
      <point x="1135" y="1506"/>
      <point x="767" y="1506" type="curve"/>
      <point x="292" y="1506"/>
      <point x="80" y="1079"/>
      <point x="69" y="621" type="curve"/>
      <point x="60" y="258"/>
      <point x="191" y="-20"/>
    </contour>
    <contour>
      <point x="580" y="98" type="curve"/>
      <point x="421" y="98"/>
      <point x="411" y="375"/>
      <point x="417" y="633" type="curve"/>
      <point x="427" y="1018"/>
      <point x="537" y="1385"/>
      <point x="739" y="1385" type="curve"/>
      <point x="871" y="1385"/>
      <point x="912" y="1188"/>
      <point x="903" y="860" type="curve"/>
      <point x="893" y="436"/>
      <point x="797" y="98"/>
    </contour>
  </outline>
</glyph>
<glyph name="R" format="1">
  <advance width="1251"/>
  <unicode hex="0052"/>
  <outline>
    <contour>
      <point x="0" y="100" type="line"/>
      <point x="-12" y="0" type="line"/>
      <point x="580" y="0" type="line"/>
      <point x="590" y="100" type="line"/>
      <point x="433" y="128" type="line"/>
      <point x="616" y="1434" type="line"/>
      <point x="561" y="1353" type="line"/>
      <point x="615" y="1380"/>
      <point x="674" y="1381"/>
      <point x="707" y="1381" type="curve"/>
      <point x="820" y="1381"/>
      <point x="898" y="1306"/>
      <point x="900" y="1150" type="curve"/>
      <point x="904" y="909"/>
      <point x="806" y="790"/>
      <point x="652" y="776" type="curve"/>
      <point x="634" y="774"/>
      <point x="540" y="775"/>
      <point x="505" y="777" type="curve"/>
      <point x="490" y="646" type="line"/>
      <point x="537" y="645"/>
      <point x="633" y="643"/>
      <point x="646" y="647" type="curve"/>
      <point x="673" y="603"/>
      <point x="704" y="379"/>
      <point x="747" y="199" type="curve"/>
      <point x="765" y="99"/>
      <point x="803" y="0"/>
      <point x="848" y="0" type="curve"/>
      <point x="1206" y="0" type="line"/>
      <point x="1218" y="102" type="line"/>
      <point x="1111" y="103"/>
      <point x="1090" y="217"/>
      <point x="1054" y="357" type="curve"/>
      <point x="1030" y="445"/>
      <point x="943" y="676"/>
      <point x="889" y="671" type="curve"/>
      <point x="808" y="657" type="line"/>
      <point x="1041" y="661"/>
      <point x="1224" y="889"/>
      <point x="1230" y="1131" type="curve"/>
      <point x="1235" y="1365"/>
      <point x="1137" y="1502"/>
      <point x="778" y="1502" type="curve"/>
      <point x="616" y="1502"/>
      <point x="573" y="1486"/>
      <point x="454" y="1486" type="curve"/>
      <point x="182" y="1486" type="line"/>
      <point x="168" y="1380" type="line"/>
      <point x="291" y="1357" type="line"/>
      <point x="119" y="128" type="line"/>
    </contour>
    <contour>
      <point x="643" y="0" type="move" name="bottom"/>
    </contour>
    <contour>
      <point x="701" y="1486" type="move" name="top"/>
    </contour>
  </outline>
</glyph>
<glyph name="S" format="1">
  <advance width="983"/>
  <unicode hex="0053"/>
  <outline>
    <contour>
      <point x="418" y="-22" type="curve"/>
      <point x="772" y="-22"/>
      <point x="937" y="191"/>
      <point x="943" y="431" type="curve"/>
      <point x="948" y="627"/>
      <point x="834" y="754"/>
      <point x="692" y="857" type="curve"/>
      <point x="521" y="975"/>
      <point x="446" y="1054"/>
      <point x="449" y="1183" type="curve"/>
      <point x="451" y="1306"/>
      <point x="511" y="1384"/>
      <point x="634" y="1384" type="curve"/>
      <point x="689" y="1384"/>
      <point x="737" y="1367"/>
      <point x="770" y="1335" type="curve"/>
      <point x="781" y="1140" type="line"/>
      <point x="962" y="1140" type="line"/>
      <point x="1012" y="1431" type="line"/>
      <point x="960" y="1467"/>
      <point x="846" y="1504"/>
      <point x="659" y="1504" type="curve"/>
      <point x="373" y="1504"/>
      <point x="161" y="1352"/>
      <point x="154" y="1073" type="curve"/>
      <point x="149" y="868"/>
      <point x="266" y="733"/>
      <point x="416" y="624" type="curve"/>
      <point x="577" y="512"/>
      <point x="635" y="433"/>
      <point x="633" y="321" type="curve"/>
      <point x="632" y="188"/>
      <point x="588" y="100"/>
      <point x="414" y="100" type="curve"/>
      <point x="343" y="100"/>
      <point x="278" y="124"/>
      <point x="243" y="162" type="curve"/>
      <point x="237" y="379" type="line"/>
      <point x="59" y="379" type="line"/>
      <point x="0" y="73" type="line"/>
      <point x="38" y="37"/>
      <point x="225" y="-22"/>
    </contour>
    <contour>
      <point x="418" y="0" type="move" name="bottom"/>
    </contour>
    <contour>
      <point x="648" y="1486" type="move" name="top"/>
    </contour>
  </outline>
</glyph>
<glyph name="T" format="1">
  <advance width="1239"/>
  <unicode hex="0054"/>
  <outline>
    <contour>
      <point x="220" y="109" type="line"/>
      <point x="204" y="0" type="line"/>
      <point x="949" y="0" type="line"/>
      <point x="961" y="109" type="line"/>
      <point x="744" y="129" type="line"/>
      <point x="915" y="1371" type="line"/>
      <point x="1070" y="1347" type="line"/>
      <point x="1079" y="928" type="line"/>
      <point x="1242" y="928" type="line"/>
      <point x="1332" y="1486" type="line"/>
      <point x="199" y="1486" type="line"/>
      <point x="107" y="928" type="line"/>
      <point x="278" y="928" type="line"/>
      <point x="425" y="1347" type="line"/>
      <point x="593" y="1371" type="line"/>
      <point x="422" y="129" type="line"/>
    </contour>
    <contour>
      <point x="574" y="0" type="move" name="bottom"/>
    </contour>
    <contour>
      <point x="771" y="1486" type="move" name="top"/>
    </contour>
  </outline>
</glyph>
<glyph name="U" format="1">
  <advance width="1239"/>
  <unicode hex="0055"/>
  <outline>
    <contour>
      <point x="591" y="-20" type="curve"/>
      <point x="906" y="-20"/>
      <point x="1089" y="152"/>
      <point x="1149" y="612" type="curve"/>
      <point x="1249" y="1357" type="line"/>
      <point x="1358" y="1383" type="line"/>
      <point x="1374" y="1486" type="line"/>
      <point x="973" y="1486" type="line"/>
      <point x="961" y="1383" type="line"/>
      <point x="1086" y="1357" type="line"/>
      <point x="983" y="612" type="line" smooth="yes"/>
      <point x="936" y="283"/>
      <point x="859" y="115"/>
      <point x="653" y="115" type="curve"/>
      <point x="508" y="115"/>
      <point x="446" y="242"/>
      <point x="451" y="412" type="curve"/>
      <point x="453" y="458"/>
      <point x="460" y="529"/>
      <point x="471" y="607" type="curve"/>
      <point x="572" y="1357" type="line"/>
      <point x="739" y="1383" type="line"/>
      <point x="751" y="1486" type="line"/>
      <point x="151" y="1486" type="line"/>
      <point x="138" y="1381" type="line"/>
      <point x="244" y="1357" type="line"/>
      <point x="140" y="580" type="line" smooth="yes"/>
      <point x="134" y="522"/>
      <point x="133" y="468"/>
      <point x="132" y="418" type="curve"/>
      <point x="125" y="171"/>
      <point x="248" y="-20"/>
    </contour>
    <contour>
      <point x="596" y="0" type="move" name="bottom"/>
    </contour>
    <contour>
      <point x="800" y="20" type="move" name="ogonek"/>
    </contour>
    <contour>
      <point x="815" y="1486" type="move" name="top"/>
    </contour>
    <contour>
      <point x="1345" y="1486" type="move" name="topright"/>
    </contour>
  </outline>
</glyph>
<glyph name="V" format="1">
  <advance width="1117"/>
  <unicode hex="0056"/>
  <outline>
    <contour>
      <point x="198" y="1357" type="line"/>
      <point x="314" y="-11" type="line"/>
      <point x="588" y="-10" type="line"/>
      <point x="1172" y="1357" type="line"/>
      <point x="1276" y="1381" type="line"/>
      <point x="1290" y="1486" type="line"/>
      <point x="855" y="1486" type="line"/>
      <point x="844" y="1381" type="line"/>
      <point x="996" y="1357" type="line"/>
      <point x="640" y="493" type="line"/>
      <point x="515" y="141" type="line"/>
      <point x="571" y="133" type="line"/>
      <point x="557" y="493" type="line"/>
      <point x="533" y="1357" type="line"/>
      <point x="646" y="1381" type="line"/>
      <point x="656" y="1486" type="line"/>
      <point x="104" y="1486" type="line"/>
      <point x="88" y="1383" type="line"/>
    </contour>
    <contour>
      <point x="901" y="1660" type="move" name="top"/>
    </contour>
  </outline>
</glyph>
<glyph name="W" format="1">
  <advance width="1708"/>
  <unicode hex="0057"/>
  <outline>
    <contour>
      <point x="860" y="1355" type="line"/>
      <point x="948" y="-10" type="line"/>
      <point x="1231" y="-10" type="line"/>
      <point x="1816" y="1357" type="line"/>
      <point x="1934" y="1383" type="line"/>
      <point x="1946" y="1486" type="line"/>
      <point x="1498" y="1486" type="line"/>
      <point x="1488" y="1380" type="line"/>
      <point x="1632" y="1355" type="line"/>
      <point x="1304" y="489" type="line"/>
      <point x="1163" y="157" type="line"/>
      <point x="1225" y="147" type="line"/>
      <point x="1215" y="492" type="line"/>
      <point x="1167" y="1355" type="line"/>
      <point x="1323" y="1380" type="line"/>
      <point x="1331" y="1486" type="line"/>
      <point x="753" y="1486" type="line"/>
      <point x="742" y="1383" type="line"/>
    </contour>
    <contour>
      <point x="126" y="1355" type="line"/>
      <point x="271" y="-10" type="line"/>
      <point x="550" y="-10" type="line"/>
      <point x="908" y="936" type="line"/>
      <point x="880" y="1237" type="line"/>
      <point x="599" y="486" type="line"/>
      <point x="478" y="154" type="line"/>
      <point x="544" y="148" type="line"/>
      <point x="507" y="492" type="line"/>
      <point x="438" y="1353" type="line"/>
      <point x="558" y="1381" type="line"/>
      <point x="568" y="1486" type="line"/>
      <point x="45" y="1486" type="line"/>
      <point x="29" y="1383" type="line"/>
    </contour>
    <contour>
      <point x="788" y="0" type="move" name="bottom"/>
    </contour>
    <contour>
      <point x="1051" y="1486" type="move" name="top"/>
    </contour>
  </outline>
</glyph>
<glyph name="X" format="1">
  <advance width="1176"/>
  <unicode hex="0058"/>
  <outline>
    <contour>
      <point x="-43" y="101" type="line"/>
      <point x="-57" y="0" type="line"/>
      <point x="388" y="0" type="line"/>
      <point x="399" y="101" type="line"/>
      <point x="285" y="129" type="line"/>
      <point x="540" y="585" type="line"/>
      <point x="776" y="779" type="line"/>
      <point x="1186" y="1357" type="line"/>
      <point x="1302" y="1381" type="line"/>
      <point x="1311" y="1486" type="line"/>
      <point x="865" y="1486" type="line"/>
      <point x="858" y="1381" type="line"/>
      <point x="965" y="1357" type="line"/>
      <point x="713" y="919" type="line"/>
      <point x="480" y="745" type="line"/>
      <point x="58" y="129" type="line"/>
    </contour>
    <contour>
      <point x="542" y="101" type="line"/>
      <point x="533" y="0" type="line"/>
      <point x="1138" y="0" type="line"/>
      <point x="1149" y="101" type="line"/>
      <point x="1032" y="129" type="line"/>
      <point x="780" y="779" type="line"/>
      <point x="717" y="919" type="line"/>
      <point x="587" y="1358" type="line"/>
      <point x="718" y="1383" type="line"/>
      <point x="727" y="1486" type="line"/>
      <point x="147" y="1486" type="line"/>
      <point x="135" y="1381" type="line"/>
      <point x="242" y="1357" type="line"/>
      <point x="484" y="745" type="line"/>
      <point x="544" y="585" type="line"/>
      <point x="668" y="128" type="line"/>
    </contour>
    <contour>
      <point x="522" y="0" type="move" name="bottom"/>
    </contour>
    <contour>
      <point x="894" y="1660" type="move" name="top"/>
    </contour>
  </outline>
</glyph>
<glyph name="Y" format="1">
  <advance width="1143"/>
  <unicode hex="0059"/>
  <outline>
    <contour>
      <point x="177" y="101" type="line"/>
      <point x="163" y="0" type="line"/>
      <point x="893" y="0" type="line"/>
      <point x="904" y="101" type="line"/>
      <point x="694" y="129" type="line"/>
      <point x="775" y="721" type="line"/>
      <point x="681" y="476" type="line"/>
      <point x="1205" y="1357" type="line"/>
      <point x="1319" y="1381" type="line"/>
      <point x="1334" y="1486" type="line"/>
      <point x="868" y="1486" type="line"/>
      <point x="857" y="1381" type="line"/>
      <point x="996" y="1357" type="line"/>
      <point x="753" y="879" type="line"/>
      <point x="622" y="618" type="line"/>
      <point x="718" y="608" type="line"/>
      <point x="649" y="879" type="line"/>
      <point x="531" y="1357" type="line"/>
      <point x="678" y="1381" type="line"/>
      <point x="694" y="1486" type="line"/>
      <point x="84" y="1486" type="line"/>
      <point x="65" y="1380" type="line"/>
      <point x="170" y="1358" type="line"/>
      <point x="483" y="466" type="line"/>
      <point x="454" y="722" type="line"/>
      <point x="377" y="128" type="line"/>
    </contour>
    <contour>
      <point x="507" y="0" type="move" name="bottom"/>
    </contour>
    <contour>
      <point x="492" y="-166" type="move" name="btm"/>
    </contour>
    <contour>
      <point x="791" y="1486" type="move" name="top"/>
    </contour>
    <contour>
      <point x="195" y="1486" type="move" name="topleft"/>
    </contour>
  </outline>
</glyph>
<glyph name="Z" format="1">
  <advance width="1071"/>
  <unicode hex="005A"/>
  <outline>
    <contour>
      <point x="-34" y="85" type="line"/>
      <point x="-4" y="0" type="line"/>
      <point x="953" y="0" type="line"/>
      <point x="1048" y="417" type="line"/>
      <point x="893" y="463" type="line"/>
      <point x="710" y="151" type="line"/>
      <point x="330" y="130" type="line"/>
      <point x="423" y="233" type="line"/>
      <point x="1162" y="1403" type="line"/>
      <point x="1136" y="1486" type="line"/>
      <point x="245" y="1486" type="line"/>
      <point x="182" y="1106" type="line"/>
      <point x="339" y="1085" type="line"/>
      <point x="472" y="1348" type="line"/>
      <point x="820" y="1365" type="line"/>
      <point x="721" y="1260" type="line"/>
    </contour>
    <contour>
      <point x="467" y="0" type="move" name="bottom"/>
    </contour>
    <contour>
      <point x="673" y="1486" type="move" name="top"/>
    </contour>
  </outline>
</glyph>
<glyph name="AE" format="1">
  <advance width="1710"/>
  <unicode hex="00C6"/>
  <outline>
    <contour>
      <point x="-178" y="101" type="line"/>
      <point x="-186" y="0" type="line"/>
      <point x="354" y="0" type="line"/>
      <point x="362" y="101" type="line"/>
      <point x="208" y="129" type="line"/>
      <point x="330" y="413" type="line"/>
      <point x="728" y="413" type="line"/>
      <point x="691" y="129" type="line"/>
      <point x="552" y="101" type="line"/>
      <point x="537" y="0" type="line"/>
      <point x="1620" y="0" type="line"/>
      <point x="1688" y="430" type="line"/>
      <point x="1493" y="446" type="line"/>
      <point x="1385" y="161" type="line"/>
      <point x="1009" y="129" type="line"/>
      <point x="1088" y="698" type="line"/>
      <point x="1456" y="667" type="line"/>
      <point x="1493" y="883" type="line"/>
      <point x="1107" y="845" type="line"/>
      <point x="1181" y="1373" type="line"/>
      <point x="1449" y="1348" type="line"/>
      <point x="1474" y="1132" type="line"/>
      <point x="1677" y="1132" type="line"/>
      <point x="1720" y="1486" type="line"/>
      <point x="372" y="1486" type="line"/>
      <point x="354" y="1373" type="line"/>
      <point x="598" y="1348" type="line"/>
      <point x="-44" y="129" type="line"/>
    </contour>
    <contour>
      <point x="749" y="557" type="line"/>
      <point x="404" y="557" type="line"/>
      <point x="794" y="1372" type="line"/>
      <point x="860" y="1371" type="line"/>
    </contour>
    <contour>
      <point x="999" y="1486" type="move" name="top"/>
    </contour>
  </outline>
</glyph>
<glyph name="Eth" format="1">
  <advance width="1311"/>
  <unicode hex="00D0"/>
  <outline>
    <contour>
      <point x="111" y="848" type="line"/>
      <point x="83" y="688" type="line"/>
      <point x="749" y="688" type="line"/>
      <point x="775" y="848" type="line"/>
    </contour>
    <contour>
      <point x="508" y="-16" type="curve"/>
      <point x="1074" y="-16"/>
      <point x="1303" y="363"/>
      <point x="1315" y="900" type="curve"/>
      <point x="1322" y="1243"/>
      <point x="1184" y="1504"/>
      <point x="766" y="1502" type="curve"/>
      <point x="662" y="1502"/>
      <point x="552" y="1488"/>
      <point x="456" y="1486" type="curve"/>
      <point x="180" y="1486" type="line"/>
      <point x="169" y="1380" type="line"/>
      <point x="290" y="1358" type="line"/>
      <point x="119" y="128" type="line"/>
      <point x="-14" y="100" type="line"/>
      <point x="-27" y="0" type="line"/>
      <point x="301" y="0" type="line"/>
      <point x="370" y="0"/>
      <point x="478" y="-16"/>
    </contour>
    <contour>
      <point x="411" y="150" type="curve"/>
      <point x="425" y="61" type="line"/>
      <point x="616" y="1401" type="line"/>
      <point x="604" y="1346" type="line"/>
      <point x="622" y="1362"/>
      <point x="646" y="1380"/>
      <point x="736" y="1380" type="curve"/>
      <point x="901" y="1380"/>
      <point x="976" y="1237"/>
      <point x="968" y="867" type="curve"/>
      <point x="961" y="530"/>
      <point x="846" y="106"/>
      <point x="539" y="106" type="curve"/>
      <point x="485" y="106"/>
      <point x="384" y="138"/>
    </contour>
  </outline>
</glyph>
<glyph name="Oslash" format="1">
  <advance width="1242"/>
  <unicode hex="00D8"/>
  <outline>
    <contour>
      <point x="102" y="-93" type="line"/>
      <point x="189" y="-159" type="line"/>
      <point x="1208" y="1589" type="line"/>
      <point x="1123" y="1653" type="line"/>
    </contour>
    <contour>
      <point x="552" y="-20" type="curve"/>
      <point x="1050" y="-20"/>
      <point x="1242" y="425"/>
      <point x="1253" y="873" type="curve"/>
      <point x="1261" y="1209"/>
      <point x="1135" y="1506"/>
      <point x="767" y="1506" type="curve"/>
      <point x="292" y="1506"/>
      <point x="80" y="1079"/>
      <point x="69" y="621" type="curve"/>
      <point x="60" y="258"/>
      <point x="191" y="-20"/>
    </contour>
    <contour>
      <point x="580" y="98" type="curve"/>
      <point x="421" y="98"/>
      <point x="411" y="375"/>
      <point x="417" y="633" type="curve"/>
      <point x="427" y="1018"/>
      <point x="537" y="1385"/>
      <point x="739" y="1385" type="curve"/>
      <point x="871" y="1385"/>
      <point x="912" y="1188"/>
      <point x="903" y="860" type="curve"/>
      <point x="893" y="436"/>
      <point x="797" y="98"/>
    </contour>
    <contour>
      <point x="761" y="1486" type="move" name="top"/>
    </contour>
  </outline>
</glyph>
<glyph name="Thorn" format="1">
  <advance width="1117"/>
  <unicode hex="00DE"/>
  <outline>
    <contour>
      <point x="2" y="100" type="line"/>
      <point x="-10" y="0" type="line"/>
      <point x="582" y="0" type="line"/>
      <point x="589" y="100" type="line"/>
      <point x="436" y="128" type="line"/>
      <point x="464" y="338" type="line"/>
      <point x="479" y="336"/>
      <point x="513" y="333"/>
      <point x="556" y="333" type="curve"/>
      <point x="1096" y="333"/>
      <point x="1168" y="597"/>
      <point x="1173" y="819" type="curve"/>
      <point x="1177" y="986"/>
      <point x="1102" y="1144"/>
      <point x="755" y="1144" type="curve"/>
      <point x="695" y="1144"/>
      <point x="630" y="1140"/>
      <point x="574" y="1136" type="curve"/>
      <point x="607" y="1358" type="line"/>
      <point x="769" y="1381" type="line"/>
      <point x="782" y="1486" type="line"/>
      <point x="180" y="1486" type="line"/>
      <point x="165" y="1381" type="line"/>
      <point x="290" y="1357" type="line"/>
      <point x="120" y="128" type="line"/>
    </contour>
    <contour>
      <point x="483" y="464" type="curve"/>
      <point x="555" y="1006" type="line"/>
      <point x="588" y="1014"/>
      <point x="632" y="1020"/>
      <point x="650" y="1020" type="curve"/>
      <point x="757" y="1020"/>
      <point x="833" y="942"/>
      <point x="833" y="792" type="curve"/>
      <point x="834" y="562"/>
      <point x="710" y="464"/>
      <point x="576" y="464" type="curve"/>
      <point x="543" y="464"/>
      <point x="513" y="464"/>
    </contour>
  </outline>
</glyph>
<glyph name="Eng" format="1">
  <advance width="1343"/>
  <unicode hex="014A"/>
  <outline>
    <contour>
      <point x="625" y="-352" type="curve"/>
      <point x="664" y="-463" type="line"/>
      <point x="937" y="-445"/>
      <point x="1084" y="-240"/>
      <point x="1140" y="91" type="curve"/>
      <point x="1337" y="1358" type="line"/>
      <point x="1457" y="1380" type="line"/>
      <point x="1468" y="1486" type="line"/>
      <point x="1036" y="1486" type="line"/>
      <point x="1025" y="1380" type="line"/>
      <point x="1151" y="1358" type="line"/>
      <point x="1007" y="338" type="line"/>
      <point x="950" y="579" type="line"/>
      <point x="688" y="1486" type="line"/>
      <point x="192" y="1486" type="line"/>
      <point x="175" y="1380" type="line"/>
      <point x="301" y="1358" type="line"/>
      <point x="133" y="128" type="line"/>
      <point x="9" y="100" type="line"/>
      <point x="-1" y="0" type="line"/>
      <point x="459" y="0" type="line"/>
      <point x="471" y="100" type="line"/>
      <point x="320" y="128" type="line"/>
      <point x="450" y="1253" type="line"/>
      <point x="506" y="1013" type="line"/>
      <point x="848" y="0" type="line"/>
      <point x="862" y="-193"/>
      <point x="730" y="-326"/>
    </contour>
  </outline>
</glyph>
<glyph name="OE" format="1">
  <advance width="2000"/>
  <unicode hex="0152"/>
  <outline>
    <contour>
      <point x="562" y="-20" type="curve"/>
      <point x="749" y="-20"/>
      <point x="884" y="55"/>
      <point x="980" y="174" type="curve"/>
      <point x="962" y="0" type="line"/>
      <point x="1883" y="0" type="line"/>
      <point x="1951" y="431" type="line"/>
      <point x="1756" y="446" type="line"/>
      <point x="1654" y="172" type="line"/>
      <point x="1278" y="139" type="line"/>
      <point x="1356" y="712" type="line"/>
      <point x="1725" y="678" type="line"/>
      <point x="1767" y="900" type="line"/>
      <point x="1376" y="855" type="line"/>
      <point x="1443" y="1372" type="line"/>
      <point x="1717" y="1349" type="line"/>
      <point x="1750" y="1132" type="line"/>
      <point x="1941" y="1132" type="line"/>
      <point x="1983" y="1486" type="line"/>
      <point x="1159" y="1486" type="line"/>
      <point x="1134" y="1281" type="line"/>
      <point x="1073" y="1416"/>
      <point x="965" y="1506"/>
      <point x="774" y="1506" type="curve"/>
      <point x="288" y="1506"/>
      <point x="78" y="1079"/>
      <point x="69" y="621" type="curve"/>
      <point x="60" y="254"/>
      <point x="192" y="-20"/>
    </contour>
    <contour>
      <point x="588" y="98" type="curve"/>
      <point x="415" y="99"/>
      <point x="402" y="375"/>
      <point x="407" y="638" type="curve"/>
      <point x="416" y="1019"/>
      <point x="533" y="1385"/>
      <point x="748" y="1385" type="curve"/>
      <point x="893" y="1385"/>
      <point x="938" y="1192"/>
      <point x="930" y="859" type="curve"/>
      <point x="920" y="436"/>
      <point x="819" y="98"/>
    </contour>
  </outline>
</glyph>
<glyph name="Ohorn" format="1">
  <advance width="1270"/>
  <unicode hex="01A0"/>
  <outline>
    <contour>
      <point x="883" y="1408" type="curve"/>
      <point x="1084" y="1270" type="line"/>
      <point x="1234" y="1284"/>
      <point x="1430" y="1436"/>
      <point x="1435" y="1688" type="curve"/>
      <point x="1435" y="1702"/>
      <point x="1434" y="1718"/>
      <point x="1431" y="1730" type="curve"/>
      <point x="1210" y="1730" type="line"/>
      <point x="1211" y="1716"/>
      <point x="1215" y="1701"/>
      <point x="1215" y="1673" type="curve"/>
      <point x="1212" y="1547"/>
      <point x="1106" y="1362"/>
    </contour>
    <contour>
      <point x="552" y="-20" type="curve"/>
      <point x="1050" y="-20"/>
      <point x="1242" y="425"/>
      <point x="1253" y="873" type="curve"/>
      <point x="1261" y="1209"/>
      <point x="1135" y="1506"/>
      <point x="767" y="1506" type="curve"/>
      <point x="292" y="1506"/>
      <point x="80" y="1079"/>
      <point x="69" y="621" type="curve"/>
      <point x="60" y="258"/>
      <point x="191" y="-20"/>
    </contour>
    <contour>
      <point x="580" y="98" type="curve"/>
      <point x="421" y="98"/>
      <point x="411" y="375"/>
      <point x="417" y="633" type="curve"/>
      <point x="427" y="1018"/>
      <point x="537" y="1385"/>
      <point x="739" y="1385" type="curve"/>
      <point x="871" y="1385"/>
      <point x="912" y="1188"/>
      <point x="903" y="860" type="curve"/>
      <point x="893" y="436"/>
      <point x="797" y="98"/>
    </contour>
  </outline>
</glyph>
<glyph name="Uhorn" format="1">
  <advance width="1398"/>
  <unicode hex="01AF"/>
  <outline>
    <contour>
      <point x="151" y="1486" type="line"/>
      <point x="138" y="1381" type="line"/>
      <point x="259" y="1357" type="line"/>
      <point x="156" y="580" type="line" smooth="yes"/>
      <point x="150" y="522"/>
      <point x="149" y="468"/>
      <point x="148" y="418" type="curve"/>
      <point x="142" y="171"/>
      <point x="263" y="-20"/>
      <point x="606" y="-20" type="curve"/>
      <point x="922" y="-20"/>
      <point x="1105" y="152"/>
      <point x="1165" y="612" type="curve"/>
      <point x="1264" y="1357" type="line"/>
      <point x="1482" y="1398"/>
      <point x="1565" y="1493"/>
      <point x="1566" y="1686" type="curve"/>
      <point x="1566" y="1700"/>
      <point x="1564" y="1714"/>
      <point x="1563" y="1730" type="curve"/>
      <point x="1341" y="1730" type="line"/>
      <point x="1342" y="1722"/>
      <point x="1342" y="1710"/>
      <point x="1342" y="1696" type="curve"/>
      <point x="1339" y="1596"/>
      <point x="1307" y="1486"/>
      <point x="1165" y="1486" type="curve"/>
      <point x="988" y="1486" type="line"/>
      <point x="977" y="1383" type="line"/>
      <point x="1103" y="1357" type="line"/>
      <point x="1000" y="612" type="line" smooth="yes"/>
      <point x="953" y="283"/>
      <point x="874" y="99"/>
      <point x="668" y="99" type="curve"/>
      <point x="529" y="99"/>
      <point x="457" y="223"/>
      <point x="462" y="412" type="curve"/>
      <point x="463" y="458"/>
      <point x="472" y="529"/>
      <point x="480" y="607" type="curve"/>
      <point x="581" y="1357" type="line"/>
      <point x="755" y="1383" type="line"/>
      <point x="766" y="1486" type="line"/>
    </contour>
    <contour>
      <point x="602" y="0" type="move" name="bottom"/>
    </contour>
    <contour>
      <point x="832" y="1486" type="move" name="top"/>
    </contour>
  </outline>
</glyph>
<glyph name="Ezh" format="1">
  <advance width="1007"/>
  <outline>
    <contour>
      <point x="462" y="-12" type="curve"/>
      <point x="763" y="-12"/>
      <point x="1055" y="150"/>
      <point x="1063" y="502" type="curve"/>
      <point x="1067" y="688"/>
      <point x="883" y="826"/>
      <point x="709" y="826" type="curve"/>
      <point x="681" y="738" type="line"/>
      <point x="1113" y="1406" type="line"/>
      <point x="1086" y="1486" type="line"/>
      <point x="197" y="1486" type="line"/>
      <point x="130" y="1106" type="line"/>
      <point x="293" y="1085" type="line"/>
      <point x="426" y="1349" type="line"/>
      <point x="764" y="1367" type="line"/>
      <point x="672" y="1262" type="line"/>
      <point x="379" y="819" type="line"/>
      <point x="427" y="749" type="line"/>
      <point x="447" y="766"/>
      <point x="481" y="780"/>
      <point x="536" y="780" type="curve"/>
      <point x="644" y="780"/>
      <point x="693" y="663"/>
      <point x="689" y="520" type="curve"/>
      <point x="684" y="269"/>
      <point x="590" y="108"/>
      <point x="449" y="108" type="curve"/>
      <point x="356" y="108"/>
      <point x="281" y="147"/>
      <point x="281" y="156" type="curve"/>
      <point x="286" y="423" type="line"/>
      <point x="66" y="423" type="line"/>
      <point x="-16" y="110" type="line"/>
      <point x="67" y="52"/>
      <point x="294" y="-12"/>
    </contour>
    <contour>
      <point x="643" y="1486" type="move" name="top"/>
    </contour>
  </outline>
</glyph>
<glyph name="Germandbls" format="1">
  <advance width="1248"/>
  <outline>
    <contour>
      <point x="789" y="-7" type="curve"/>
      <point x="1027" y="-7"/>
      <point x="1245" y="164"/>
      <point x="1252" y="466" type="curve"/>
      <point x="1258" y="726"/>
      <point x="1101" y="847"/>
      <point x="938" y="900" type="curve"/>
      <point x="1218" y="1292" type="line"/>
      <point x="1229" y="1367" type="line"/>
      <point x="1197" y="1427"/>
      <point x="1088" y="1508"/>
      <point x="840" y="1508" type="curve"/>
      <point x="476" y="1508"/>
      <point x="213" y="1239"/>
      <point x="171" y="905" type="curve"/>
      <point x="60" y="128" type="line"/>
      <point x="-48" y="101" type="line"/>
      <point x="-60" y="-1" type="line"/>
      <point x="371" y="-1" type="line"/>
      <point x="506" y="944" type="line" smooth="yes"/>
      <point x="546" y="1226"/>
      <point x="619" y="1391"/>
      <point x="807" y="1391" type="curve"/>
      <point x="906" y="1391"/>
      <point x="962" y="1287"/>
      <point x="936" y="1197" type="curve"/>
      <point x="714" y="849" type="line"/>
      <point x="702" y="783" type="line"/>
      <point x="789" y="721"/>
      <point x="925" y="595"/>
      <point x="920" y="407" type="curve"/>
      <point x="916" y="199"/>
      <point x="859" y="101"/>
      <point x="797" y="101" type="curve"/>
      <point x="747" y="101"/>
      <point x="722" y="126"/>
      <point x="708" y="177" type="curve"/>
      <point x="686" y="341" type="line"/>
      <point x="541" y="341" type="line"/>
      <point x="501" y="54" type="line"/>
      <point x="567" y="48"/>
      <point x="668" y="-7"/>
    </contour>
  </outline>
</glyph>
<glyph name="Schwa" format="1">
  <advance width="1174"/>
  <outline>
    <contour>
      <point x="487" y="-22" type="curve"/>
      <point x="821" y="-22"/>
      <point x="1115" y="368"/>
      <point x="1127" y="904" type="curve"/>
      <point x="1135" y="1264"/>
      <point x="958" y="1502"/>
      <point x="695" y="1502" type="curve"/>
      <point x="366" y="1502"/>
      <point x="307" y="1415"/>
      <point x="218" y="1415" type="curve"/>
      <point x="173" y="1093" type="line"/>
      <point x="344" y="1093" type="line"/>
      <point x="434" y="1292" type="line" smooth="yes"/>
      <point x="460" y="1358"/>
      <point x="506" y="1392"/>
      <point x="591" y="1392" type="curve"/>
      <point x="777" y="1392"/>
      <point x="821" y="1147"/>
      <point x="798" y="797" type="curve"/>
      <point x="797" y="784"/>
      <point x="795" y="773"/>
      <point x="795" y="759" type="curve"/>
      <point x="109" y="759" type="line"/>
      <point x="91" y="705"/>
      <point x="64" y="582"/>
      <point x="62" y="468" type="curve"/>
      <point x="55" y="156"/>
      <point x="216" y="-22"/>
    </contour>
    <contour>
      <point x="528" y="105" type="curve"/>
      <point x="401" y="105"/>
      <point x="370" y="236"/>
      <point x="374" y="435" type="curve"/>
      <point x="375" y="504"/>
      <point x="387" y="558"/>
      <point x="402" y="629" type="curve"/>
      <point x="782" y="629" type="line"/>
      <point x="734" y="237"/>
      <point x="634" y="105"/>
    </contour>
  </outline>
</glyph>
